<?xml version="1.0" encoding="UTF-8" standalone="no"?>
<svg
   height="2500"
   viewBox="0 -3.1 2490.3 2493"
   width="2494"
   version="1.1"
   id="svg1"
   sodipodi:docname="github-icon-2.svg"
   inkscape:version="1.3 (0e150ed6c4, 2023-07-21)"
   xmlns:inkscape="http://www.inkscape.org/namespaces/inkscape"
   xmlns:sodipodi="http://sodipodi.sourceforge.net/DTD/sodipodi-0.dtd"
   xmlns="http://www.w3.org/2000/svg"
   xmlns:svg="http://www.w3.org/2000/svg">
  <defs
     id="defs1" />
  <sodipodi:namedview
     id="namedview1"
     pagecolor="#000000"
     bordercolor="#000000"
     borderopacity="0.25"
     inkscape:showpageshadow="2"
     inkscape:pageopacity="0.0"
     inkscape:pagecheckerboard="0"
     inkscape:deskcolor="#a7a7a7"
     showgrid="false"
     inkscape:zoom="0.4868"
     inkscape:cx="1752.2597"
     inkscape:cy="1190.4273"
     inkscape:window-width="2560"
     inkscape:window-height="1494"
     inkscape:window-x="-11"
     inkscape:window-y="-11"
     inkscape:window-maximized="1"
     inkscape:current-layer="svg1" />
  <ellipse
     cx="1245.2"
     cy="1247.3741"
     fill="#177ae8"
     rx="1217.6"
     ry="1244.0642"
     id="ellipse1"
     style="stroke-width:0.999022" />
  <path
     d="m1245.2 1.6c-687.6 0-1245.2 557.4-1245.2 1245.1 0 550.2 356.8 1016.9 851.5 1181.5 62.2 11.5 85.1-27 85.1-59.9 0-29.7-1.2-127.8-1.7-231.8-346.4 75.3-419.5-146.9-419.5-146.9-56.6-143.9-138.3-182.2-138.3-182.2-113-77.3 8.5-75.7 8.5-75.7 125 8.8 190.9 128.3 190.9 128.3 111.1 190.4 291.3 135.3 362.3 103.5 11.2-80.5 43.4-135.4 79.1-166.5-276.6-31.5-567.3-138.3-567.3-615.4 0-135.9 48.6-247 128.3-334.2-12.9-31.3-55.5-157.9 12.1-329.4 0 0 104.6-33.5 342.5 127.6 99.3-27.6 205.8-41.4 311.7-41.9 105.8.5 212.4 14.3 311.9 41.9 237.7-161.1 342.1-127.6 342.1-127.6 67.8 171.5 25.1 298.2 12.2 329.5 79.8 87.2 128.1 198.3 128.1 334.2 0 478.2-291.3 583.6-568.6 614.4 44.7 38.6 84.5 114.4 84.5 230.6 0 166.6-1.4 300.7-1.4 341.7 0 33.1 22.4 72 85.5 59.7 494.5-164.8 850.8-631.4 850.8-1181.4 0-687.7-557.5-1245.1-1245.1-1245.1"
     fill="#ffffff"
     id="path1"
     inkscape:label="path1" />
</svg>
