<?xml version="1.0" standalone="no"?>
<!DOCTYPE svg PUBLIC "-//W3C//DTD SVG 20010904//EN"
 "http://www.w3.org/TR/2001/REC-SVG-20010904/DTD/svg10.dtd">
<svg version="1.0" xmlns="http://www.w3.org/2000/svg"
 width="387.000000pt" height="387.000000pt" viewBox="0 0 387.000000 387.000000"
 preserveAspectRatio="xMidYMid meet">

<g transform="translate(0.000000,387.000000) scale(0.100000,-0.100000)"
fill="#fff" stroke="none">
<path d="M1735 3469 c-245 -29 -517 -141 -728 -299 -96 -73 -277 -249 -277
-271 0 -5 121 -9 310 -9 l310 0 24 48 c73 144 224 341 353 461 41 40 74 73 72
74 -2 2 -31 0 -64 -4z"/>
<path d="M2171 3377 c107 -106 217 -245 283 -358 l39 -66 126 57 c69 32 165
72 213 90 l87 33 -42 32 c-216 165 -497 278 -765 308 l-43 5 102 -101z"/>
<path d="M1858 3315 c-107 -93 -231 -244 -317 -387 l-23 -38 416 0 c255 0 416
4 416 9 0 6 -32 59 -72 118 -50 75 -110 147 -198 236 -70 70 -132 127 -137
127 -5 0 -43 -29 -85 -65z"/>
<path d="M3190 3200 c-108 -17 -108 -17 -41 -84 l59 -59 90 2 c141 3 192 -28
192 -120 0 -26 -7 -66 -15 -89 -21 -59 -19 -83 8 -108 28 -27 78 -29 100 -4
44 48 70 206 47 287 -17 62 -77 127 -142 155 -60 26 -201 35 -298 20z"/>
<path d="M2910 2971 c-58 -21 -125 -48 -150 -59 l-45 -21 218 0 c119 -1 217 2
217 5 0 17 -98 114 -115 113 -11 0 -67 -17 -125 -38z"/>
<path d="M2375 2724 c-95 -50 -320 -188 -465 -284 -225 -151 -570 -412 -570
-432 0 -4 281 -8 625 -8 553 0 626 2 632 15 8 22 -13 208 -37 327 -27 131
-117 408 -133 408 -1 0 -25 -12 -52 -26z"/>
<path d="M557 2633 c-88 -173 -147 -372 -163 -555 l-7 -78 355 0 c325 0 356 1
370 18 10 11 20 56 27 122 24 214 69 407 137 584 6 14 -28 16 -329 16 l-335 0
-55 -107z"/>
<path d="M1412 2663 c-17 -43 -39 -110 -51 -149 -32 -109 -78 -344 -67 -344 3
0 31 22 63 48 146 121 421 315 698 490 l50 32 -332 0 -332 0 -29 -77z"/>
<path d="M2600 2734 c0 -3 13 -43 29 -88 55 -155 98 -369 117 -578 l6 -68 364
0 c309 0 365 2 370 14 8 22 -23 218 -51 325 -29 108 -101 283 -145 354 l-30
47 -330 0 c-182 0 -330 -3 -330 -6z"/>
<path d="M390 1836 c0 -83 44 -303 80 -399 l21 -56 91 105 c49 58 149 166 220
240 l131 134 -272 0 -271 0 0 -24z"/>
<path d="M1280 1805 c0 -157 65 -447 145 -642 l17 -43 498 0 497 0 31 83 c68
180 113 382 127 565 l8 92 -662 0 -661 0 0 -55z"/>
<path d="M2746 1793 c-19 -210 -54 -391 -111 -560 -19 -57 -35 -107 -35 -109
0 -2 150 -4 334 -4 l334 0 55 113 c88 176 143 366 162 560 l7 67 -370 0 -370
0 -6 -67z"/>
<path d="M971 1685 c-150 -147 -286 -296 -370 -408 l-43 -56 28 -51 27 -50
335 0 c300 0 334 2 328 16 -72 187 -106 341 -144 639 l-7 60 -154 -150z"/>
<path d="M347 1173 c-141 -234 -179 -397 -119 -514 37 -74 92 -113 188 -135
106 -23 200 -15 232 21 27 32 28 65 2 93 -18 19 -31 22 -98 22 -93 0 -147 14
-178 45 -48 48 -25 177 56 317 l40 70 -36 64 c-20 35 -39 66 -44 69 -5 3 -24
-21 -43 -52z"/>
<path d="M759 921 c196 -234 499 -420 805 -495 80 -20 236 -47 236 -41 0 0
-53 55 -117 121 -125 126 -225 259 -293 387 l-41 77 -316 0 -315 0 41 -49z"/>
<path d="M1531 948 c27 -52 116 -178 177 -251 67 -81 219 -220 234 -215 20 7
138 118 207 194 68 76 201 264 201 285 0 5 -182 9 -415 9 l-416 0 12 -22z"/>
<path d="M2472 867 c-85 -146 -170 -256 -289 -374 -57 -57 -103 -104 -103
-106 0 -6 127 12 196 28 115 26 223 65 339 120 128 62 217 120 332 216 74 62
193 186 201 210 2 5 -118 9 -306 9 l-309 0 -61 -103z"/>
</g>
</svg>
