<?xml version="1.0" standalone="no"?>
<!DOCTYPE svg PUBLIC "-//W3C//DTD SVG 20010904//EN"
 "http://www.w3.org/TR/2001/REC-SVG-20010904/DTD/svg10.dtd">
<svg version="1.0" xmlns="http://www.w3.org/2000/svg"
 width="137.000000pt" height="91.000000pt" viewBox="0 0 137.000000 91.000000"
 preserveAspectRatio="xMidYMid meet">

<g transform="translate(0.000000,91.000000) scale(0.100000,-0.100000)"
fill="#fff" stroke="none">
<path d="M30 895 c-11 -13 -9 -19 6 -36 11 -12 155 -136 322 -275 209 -175
311 -254 327 -254 35 0 660 523 660 553 l0 22 -651 3 c-574 2 -653 0 -664 -13z"/>
<path d="M5 767 c-3 -6 -4 -161 -3 -342 l3 -330 22 0 c23 0 403 320 403 340 0
15 -51 62 -233 214 -87 72 -165 131 -173 131 -8 0 -17 -6 -19 -13z"/>
<path d="M1174 649 c-169 -141 -234 -199 -234 -210 0 -14 391 -344 408 -344
16 0 17 26 17 340 0 305 -2 340 -16 343 -9 2 -86 -55 -175 -129z"/>
<path d="M264 209 c-115 -99 -210 -187 -212 -195 -3 -12 86 -14 638 -14 540 0
641 2 638 14 -5 21 -421 376 -441 376 -10 0 -47 -22 -83 -50 -62 -48 -84 -55
-144 -50 -33 3 -56 15 -111 62 -25 21 -52 38 -60 38 -9 0 -110 -81 -225 -181z"/>
</g>
</svg>
