<?xml version="1.0" encoding="UTF-8" standalone="no"?>
<svg
   version="1.0"
   width="555.000000pt"
   height="555.000000pt"
   viewBox="0 0 555.000000 555.000000"
   preserveAspectRatio="xMidYMid meet"
   id="svg6"
   sodipodi:docname="1000_F_763164522_UNUlLnHGzuNUNYkL21aKItk7u4KvCt3e.svg"
   xml:space="preserve"
   inkscape:version="1.2.2 (732a01da63, 2022-12-09)"
   xmlns:inkscape="http://www.inkscape.org/namespaces/inkscape"
   xmlns:sodipodi="http://sodipodi.sourceforge.net/DTD/sodipodi-0.dtd"
   xmlns="http://www.w3.org/2000/svg"
   xmlns:svg="http://www.w3.org/2000/svg"><defs
     id="defs10" /><sodipodi:namedview
     id="namedview8"
     pagecolor="#ffffff"
     bordercolor="#000000"
     borderopacity="0.25"
     inkscape:showpageshadow="2"
     inkscape:pageopacity="0.0"
     inkscape:pagecheckerboard="0"
     inkscape:deskcolor="#d1d1d1"
     inkscape:document-units="pt"
     showgrid="false"
     inkscape:zoom="1.3878378"
     inkscape:cx="337.93574"
     inkscape:cy="343.7001"
     inkscape:window-width="2560"
     inkscape:window-height="1346"
     inkscape:window-x="-11"
     inkscape:window-y="1609"
     inkscape:window-maximized="1"
     inkscape:current-layer="g4" /><g
     transform="translate(0.000000,555.000000) scale(0.100000,-0.100000)"
     fill="#000000"
     stroke="none"
     id="g4"><path
       d="m 386.34307,220.46872 c -53.52818,30.43853 -99.68382,56.68109 -102.57595,58.31681 l -5.28644,2.98696 -103.28711,-57.55821 C 118.39395,192.54303 71.835334,166.58495 71.7168,166.56124 c -0.09479,-0.0474 -0.16594,53.29113 -0.142237,118.50638 l 0.07112,118.60119 105.444367,56.75226 105.42066,56.72847 100.70316,-57.81895 100.67946,-57.84272 0.0711,-118.19821 c 0.0236,-65.0019 -0.0236,-118.1982 -0.11851,-118.17448 -0.11851,0 -43.97469,24.91502 -97.50285,55.35354 z"
       id="path116"
       style="fill:#0088ee;fill-opacity:1;stroke:none;stroke-width:0.0237061"
       transform="matrix(9.9999998,0,0,-9.9999998,0,5550)" /><path
       d="m 173.07148,91.7387 c -57.03889,33.71733 -103.98262,61.47275 -104.283227,61.67315 -0.500995,0.35071 4.559104,3.3066 105.460577,61.7483 58.31645,33.74237 106.11188,61.39759 106.21208,61.44769 0.2505,0.1002 207.38911,-122.66993 207.38911,-122.92044 C 487.82512,153.487 277.75551,30.641712 277.22946,30.541518 277.00401,30.491368 230.13543,58.02139 173.07148,91.7387 Z"
       id="path1952"
       style="fill:#ffffff;fill-opacity:1;stroke:none;stroke-width:0.02505"
       transform="matrix(9.9999998,0,0,-9.9999998,0,5550)" /><path
       d="M2585 5188 c-104 -61 -262 -152 -350 -203 -88 -50 -455 -262 -815 -470 -360 -208 -694 -401 -743 -428 l-87 -51 0 -1266 0 -1266 1095 -632 1095 -632 128 73 c344 200 1898 1097 1975 1141 l87 50 0 1266 0 1266 -902 521 c-497 286 -989 571 -1095 632 -106 61 -194 111 -195 110 -2 0 -88 -50 -193 -111z m436 -290 c126 -73 229 -135 229 -138 0 -3 -317 -187 -705 -410 -387 -223 -704 -407 -705 -410 0 -6 204 -125 225 -132 10 -3 143 73 1028 585 209 120 385 221 392 224 14 5 1185 -665 1185 -678 0 -4 -181 -112 -402 -240 -222 -127 -635 -366 -919 -530 -283 -164 -527 -303 -541 -309 -24 -11 -43 -3 -257 120 -127 73 -231 136 -231 139 0 3 19 17 43 30 43 25 807 465 1165 672 l203 117 -95 56 c-52 31 -106 61 -119 67 -23 11 -73 -16 -627 -336 -331 -191 -648 -374 -704 -406 -55 -33 -106 -59 -112 -59 -15 0 -1178 667 -1181 677 -2 5 207 130 464 278 258 149 679 392 938 542 259 150 476 272 484 273 7 0 116 -60 242 -132z m-1266 -1654 l945 -546 0 -275 c0 -151 -3 -272 -7 -270 -199 116 -1415 817 -1418 817 -3 0 -5 -60 -5 -134 l0 -133 715 -414 715 -414 0 -272 c0 -150 -2 -273 -4 -273 -2 0 -322 184 -711 410 -389 225 -709 410 -711 410 -2 0 -4 -183 -4 -406 0 -248 -4 -404 -9 -402 -6 2 -111 62 -235 133 l-225 130 -1 1093 c0 600 2 1092 5 1092 2 0 430 -246 950 -546z m3005 274 l-1 -273 -709 -410 -710 -409 0 -549 c0 -436 3 -547 13 -540 6 4 219 128 472 275 l460 267 3 136 c1 74 1 135 -2 135 -2 0 -156 -88 -341 -196 -186 -107 -344 -198 -351 -201 -12 -4 -14 37 -12 268 l3 274 583 337 c321 186 586 338 588 338 2 0 4 -307 4 -682 l0 -683 -38 -21 c-20 -11 -260 -150 -532 -308 -982 -572 -1301 -757 -1315 -762 -13 -5 -15 126 -15 1089 l0 1095 943 545 c518 300 945 546 950 546 4 1 7 -122 7 -271z"
       id="path2" /></g></svg>
